<svg width="400" height="300" viewBox="0 0 400 300" xmlns="http://www.w3.org/2000/svg">
  <defs>
    <linearGradient id="businessGradient" x1="0%" y1="0%" x2="100%" y2="100%">
      <stop offset="0%" style="stop-color:#ED8936;stop-opacity:1" />
      <stop offset="100%" style="stop-color:#DD6B20;stop-opacity:1" />
    </linearGradient>
  </defs>
  <rect width="400" height="300" fill="url(#businessGradient)"/>
  <g transform="translate(50,50)">
    <!-- Building -->
    <rect x="150" y="120" width="100" height="80" fill="#FFFFFF" stroke="#2D3748" stroke-width="3"/>
    <!-- Windows -->
    <rect x="160" y="130" width="15" height="15" fill="#4299E1"/>
    <rect x="180" y="130" width="15" height="15" fill="#4299E1"/>
    <rect x="200" y="130" width="15" height="15" fill="#4299E1"/>
    <rect x="220" y="130" width="15" height="15" fill="#4299E1"/>
    <rect x="160" y="150" width="15" height="15" fill="#4299E1"/>
    <rect x="180" y="150" width="15" height="15" fill="#4299E1"/>
    <rect x="200" y="150" width="15" height="15" fill="#4299E1"/>
    <rect x="220" y="150" width="15" height="15" fill="#4299E1"/>
    <!-- Door -->
    <rect x="190" y="170" width="20" height="30" fill="#2D3748"/>
    <!-- Growth chart -->
    <polyline points="50,180 80,160 110,140 140,120" fill="none" stroke="#FFFFFF" stroke-width="4" marker-end="url(#arrow)"/>
    <defs>
      <marker id="arrow" markerWidth="10" markerHeight="10" refX="9" refY="3" orient="auto" markerUnits="strokeWidth">
        <path d="M0,0 L0,6 L9,3 z" fill="#FFFFFF"/>
      </marker>
    </defs>
  </g>
  <text x="200" y="270" text-anchor="middle" fill="#FFFFFF" font-family="Arial, sans-serif" font-size="24" font-weight="bold">Business Loan</text>
</svg>